<svg width="151" height="70" viewBox="0 0 151 70" fill="none" xmlns="http://www.w3.org/2000/svg">
<path d="M95.5648 62.4707C96.9745 61.9498 97.8836 60.6524 97.8836 59.161V58.0169C97.8836 56.0658 96.3003 54.4824 94.3492 54.4824H83.4699C82.857 54.4824 82.3564 54.983 82.3564 55.5959V66.4751C82.3564 67.088 82.857 67.5886 83.4699 67.5886H83.8989C84.5119 67.5886 85.0124 67.088 85.0124 66.4751V63.2062C85.0124 62.9509 85.2167 62.7466 85.4721 62.7466H92.1427C92.3878 62.7466 92.6228 62.8794 92.7454 63.0939L95.0642 67.1391C95.2787 67.4966 95.6465 67.7009 96.0245 67.7009C96.2288 67.7009 96.4331 67.6499 96.6169 67.5273L96.6782 67.466C96.9336 67.3026 97.1175 67.0676 97.189 66.7816C97.2605 66.4955 97.2094 66.1891 97.0562 65.9235L95.3605 63.0122C95.3094 62.9202 95.2992 62.8078 95.3298 62.7057C95.3707 62.5933 95.4626 62.5116 95.5648 62.4707ZM95.1868 59.3755C95.1868 60.1314 94.5739 60.4788 93.9712 60.4788H85.4619C85.2371 60.4788 85.0533 60.2949 85.0533 60.0702V57.2201C85.0533 56.9954 85.2371 56.8115 85.4619 56.8115H93.9201C94.6148 56.8115 95.1868 57.3733 95.1868 58.0782V59.3755Z" fill="black"/>
<path d="M130.419 54.4824H118.733C118.263 54.4824 117.854 54.891 117.854 55.3609V66.7203C117.854 67.1902 118.263 67.5988 118.733 67.5988H130.419C132.37 67.5988 133.954 66.0154 133.954 64.0643V58.0271C133.954 56.076 132.37 54.4824 130.419 54.4824ZM131.308 58.0169V64.0541C131.308 64.7487 130.746 65.3208 130.041 65.3208H120.868C120.674 65.3208 120.51 65.1574 120.51 64.9633V57.118C120.51 56.9239 120.674 56.7604 120.868 56.7604H130.041C130.736 56.7604 131.308 57.3223 131.308 58.0169Z" fill="black"/>
<path d="M116.415 66.0054L116.047 65.4231H116.067L109.162 55.1772C108.764 54.5847 108.222 54.2578 107.65 54.2578C107.64 54.2578 107.619 54.2578 107.609 54.2578C107.027 54.2578 106.486 54.5847 106.087 55.1772L99.3553 65.1677L99.1919 65.4231H99.2021L98.8343 66.0054C98.6709 66.2505 98.6096 66.5365 98.6913 66.8124C98.7628 67.0882 98.9569 67.3129 99.2225 67.4457L99.4881 67.5785C100.03 67.8441 100.745 67.65 101.082 67.1597L103.176 64.0032H112.094L114.188 67.1597C114.423 67.507 114.831 67.7011 115.25 67.7011C115.434 67.7011 115.618 67.6602 115.781 67.5785L116.047 67.4457C116.313 67.3129 116.507 67.0882 116.578 66.8124C116.64 66.5365 116.578 66.2505 116.415 66.0054ZM110.194 61.5617C110.122 61.6945 109.989 61.7762 109.836 61.7762H105.403C105.25 61.7762 105.117 61.6945 105.045 61.5617C104.974 61.4289 104.984 61.2757 105.066 61.1531L107.374 57.7208L107.446 57.6084C107.476 57.5573 107.528 57.5369 107.589 57.5369H107.599H107.609H107.619C107.681 57.5369 107.742 57.5573 107.773 57.6084L110.153 61.1429C110.255 61.2757 110.265 61.4289 110.194 61.5617Z" fill="black"/>
<path d="M139.654 56.7806H149.522C150.002 56.7806 150.401 56.3924 150.401 55.902V55.4117C150.401 54.9316 150.012 54.5332 149.522 54.5332H139.276C137.325 54.5332 135.731 56.1268 135.731 58.0779V64.0538C135.731 66.0049 137.325 67.5985 139.276 67.5985H149.522C150.002 67.5985 150.39 67.2103 150.39 66.7302V66.2399C150.39 65.7598 150.002 65.3614 149.512 65.3614H139.654C138.939 65.3614 138.357 64.7791 138.357 64.064V62.0516C138.357 61.8371 138.53 61.6634 138.745 61.6634H148.051C148.531 61.6634 148.93 61.2753 148.93 60.7849V60.2946C148.93 59.8145 148.541 59.4161 148.051 59.4161H138.745C138.53 59.4161 138.357 59.2424 138.357 59.0279V58.0472C138.377 57.3526 138.949 56.7806 139.654 56.7806Z" fill="black"/>
<path d="M79.6991 54.5469H67.1139C66.4806 54.5469 66.123 54.8942 66.123 55.5275V55.7829C66.123 56.4367 66.4602 56.7738 67.1139 56.7738H71.4248C71.7721 56.7738 72.0581 57.0598 72.0581 57.4071V66.6009C72.0581 67.2342 72.4054 67.5815 73.0388 67.5815H73.7334C74.3668 67.5815 74.7141 67.2342 74.7141 66.6009V57.4071C74.7141 57.0598 75.0001 56.7738 75.3474 56.7738H79.6991C80.3325 56.7738 80.6798 56.4163 80.6798 55.7829V55.5275C80.6798 54.8942 80.3325 54.5469 79.6991 54.5469Z" fill="black"/>
<path d="M32.9846 54.5332H32.6066C31.9733 54.5332 31.4625 55.044 31.4625 55.6773V63.6248C31.4625 64.585 30.6759 65.3716 29.7157 65.3716H22.4629C21.5026 65.3716 20.7161 64.585 20.7161 63.6248V63.5022C20.7161 63.3694 20.7263 62.4602 20.7263 55.6671C20.7263 55.044 20.2257 54.5434 19.6026 54.5434H19.2144C18.5811 54.5434 18.0703 55.0542 18.0703 55.6875V64.0742C18.0703 66.0254 19.6639 67.6189 21.615 67.6189H30.5738C32.5147 67.6189 34.098 66.0356 34.098 64.0947C34.098 64.0947 34.1083 63.4205 34.1083 63.3694V55.6875C34.1185 55.044 33.6077 54.5332 32.9846 54.5332Z" fill="#3DA542"/>
<path d="M40.0428 56.7806H49.9107C50.3908 56.7806 50.7892 56.3924 50.7892 55.902V55.4117C50.7892 54.9316 50.401 54.5332 49.9107 54.5332H39.6648C37.7137 54.5332 36.1201 56.1268 36.1201 58.0779V64.0538C36.1201 66.0049 37.7137 67.5985 39.6648 67.5985H49.9107C50.3908 67.5985 50.779 67.2103 50.779 66.7302V66.2399C50.779 65.7598 50.3908 65.3614 49.9005 65.3614H40.0428C39.3277 65.3614 38.7454 64.7791 38.7454 64.064V62.0516C38.7454 61.8371 38.9191 61.6634 39.1336 61.6634H48.4397C48.9198 61.6634 49.3182 61.2753 49.3182 60.7849V60.2946C49.3182 59.8145 48.93 59.4161 48.4397 59.4161H39.1336C38.9191 59.4161 38.7454 59.2424 38.7454 59.0279V58.0472C38.7659 57.3526 39.3379 56.7806 40.0428 56.7806Z" fill="#3DA542"/>
<path d="M63.497 59.4287H56.1931C55.478 59.4287 54.8957 58.8464 54.8957 58.1314V58.0701C54.8957 57.355 55.478 56.7727 56.1931 56.7727H63.5481C64.0282 56.7727 64.4266 56.3846 64.4266 55.8942V55.4039C64.4266 54.9238 64.0384 54.5254 63.5481 54.5254H55.7947C53.8436 54.5254 52.25 56.119 52.25 58.0701V58.1212C52.25 60.0723 53.8436 61.6659 55.7947 61.6659H55.9377V61.6761L56.1114 61.6659C56.1318 61.6659 56.142 61.6659 56.1522 61.6659H63.1088C63.8137 61.6659 64.3857 62.2481 64.3857 62.9428V64.0767C64.3857 64.7917 63.8034 65.374 63.0884 65.374H61.8013C61.7604 65.3638 61.7298 65.374 61.6991 65.374C61.6889 65.374 61.6787 65.374 61.6685 65.374H53.1285C52.6484 65.374 52.25 65.7622 52.25 66.2525V66.7326C52.25 67.2127 52.6382 67.6111 53.1285 67.6111H55.9377V67.6213H63.4766C65.4277 67.6213 67.0213 66.0278 67.0213 64.0767V62.953C67.0213 61.0121 65.4379 59.4287 63.497 59.4287Z" fill="#3DA542"/>
<path d="M16.0788 64.064V58.0779C16.0788 56.1268 14.4852 54.5332 12.5341 54.5332H3.54469C1.59358 54.5332 0 56.1268 0 58.0779V64.0538C0 66.0049 1.59358 67.5985 3.54469 67.5985H12.0029C12.1459 67.5985 12.2685 67.67 12.34 67.7926C12.6363 68.3238 13.2798 69.4372 13.2798 69.4372C13.4841 69.7948 13.8621 69.9991 14.2605 69.9991C14.4546 69.9991 14.6487 69.948 14.8223 69.8459L15.1696 69.6416C15.7008 69.3351 15.8847 68.6405 15.5783 68.1093L14.8938 66.9243C14.8428 66.8426 14.8632 66.7302 14.9347 66.6587C15.66 65.9947 16.0788 65.0447 16.0788 64.064ZM13.4331 58.4048V63.7269C13.4331 64.6259 12.6976 65.3511 11.8088 65.3511H4.26998C3.37103 65.3511 2.64575 64.6259 2.64575 63.7269V58.4048C2.64575 57.5058 3.37103 56.7806 4.26998 56.7806H11.8088C12.7078 56.7703 13.4331 57.5058 13.4331 58.4048Z" fill="#3DA542"/>
<path d="M66.6335 23.5104C70.6277 16.1554 75.8885 10.5881 80.6693 8.00365L75.8681 0.444363C75.4901 -0.148121 74.8874 -0.148121 74.5299 0.444363L48.2563 41.857C47.8783 42.4495 48.195 42.6231 48.8794 42.6231H61.4135C61.2194 37.2703 62.8232 30.4874 66.6335 23.5104Z" fill="#3EA448"/>
<path d="M82.3033 12.7103C79.7291 11.3006 74.172 16.5206 69.8918 24.3761C65.6218 32.2215 64.2428 39.7297 66.817 41.1496C68.6864 42.1609 71.8327 39.4947 75.1935 35.1124V25.081C75.1935 24.039 75.8473 23.467 76.3376 24.3761L79.1366 29.6676C79.1775 29.6064 79.1979 29.5553 79.2387 29.494C83.5189 21.6385 84.8878 14.1302 82.3033 12.7103Z" fill="#3EA448"/>
<path d="M102.162 41.8552L91.5582 25.1328C90.6388 28.2791 89.2802 31.6093 87.4823 34.9088C86.5425 36.625 85.5414 38.239 84.4893 39.761L86.4914 42.6213H101.539C102.223 42.6213 102.54 42.4477 102.162 41.8552Z" fill="#3EA448"/>
</svg>
