<svg id="logo_default" role="img" focusable="false" aria-label="Charles Schwab logo" viewBox="85 195 790 570" xmlns="http://www.w3.org/2000/svg"><path fill="#009CDB" d="M258.1031,266.9222c-6.9734-22.495-19.0072-49.6944-51.6545-49.6944-25.61,0-39.6197,18.6526-39.6197,40.7771,0,21.7539,15.5522,36.117,45.4829,49.7096l10.0906,4.6748c30.2701,13.5921,58.2265,34.1429,58.2265,74.5653,0,46.1922-36.1023,78.839-88.5284,78.839-14.7485,0-28.7581-3.117-38.8478-6.604-10.8695-3.5174-17.874-6.6026-22.5335-8.1763-3.0854-10.0906-7.7754-36.5034-11.6633-60.1705l11.6633-3.8882c7.7761,20.1952,28.7661,63.2867,68.7255,63.2867,25.2713,0,40.7925-19.7789,40.7925-43.8784,0-21.7537-10.4908-37.2741-41.162-52.4252l-12.4362-6.2024c-25.6419-13.237-58.2643-33.7878-58.2643-71.8646,0-40.7768,30.7103-74.1791,82.765-74.1791,10.4602,0,24.438,1.5578,35.3313,5.4378,6.2017,2.3374,11.6322,3.1093,16.3229,5.0533,1.5428,13.6075,3.8566,30.6874,7.7445,52.4252l-12.4352,2.3145h0Z"></path><path fill="#009CDB" d="M513.8499,274.6974c-12.4347-44.2783-36.9045-57.4695-73.0066-57.4695-63.6881,0-92.4156,53.2118-92.4156,110.6975,0,72.2361,35.7009,122.316,92.4156,122.316,41.9342,0,61.3734-21.7539,81.5228-62.9162l10.9233,2.3297c-4.6586,18.6524-13.2375,49.725-19.4394,64.4897-10.8613,3.1011-45.8527,11.6491-73.0066,11.6491-101.7654,0-142.9275-66.404-142.9275-127.7776,0-81.5541,62.916-136.3244,149.9008-136.3244,33.4182,0,59.0292,7.7752,69.8908,10.0899,3.1471,21.7694,4.6586,38.8485,7.0042,61.3587l-10.8618,1.5573h0Z"></path><path fill="#009CDB" d="M660.6655,207.5227v10.8774c-28.7579,2.3292-31.8742,5.4149-31.8742,47.3801v52.0248h118.0573v-52.0248c0-41.9653-3.0854-45.0509-32.6152-47.3801v-10.8774h110.3118v10.8774c-31.0724,2.3292-34.1887,5.4149-34.1887,47.3801v135.9237c0,41.9342,3.1163,45.0813,33.4177,47.3958v10.8618h-112.6263v-10.8618c32.6152-2.3145,35.7007-5.4616,35.7007-47.3958v-66.0173h-118.0573v66.0173c0,41.9342,3.1163,45.0813,33.4173,47.3958v10.8618h-111.0533v-10.8618c31.0418-2.3145,34.1282-5.4616,34.1282-47.3958v-135.9237c0-41.9653-3.0864-45.0509-35.7019-47.3801v-10.8774h111.0839Z"></path><path fill="#009CDB" d="M308.2057,501.6841l67.5449,184.8923h.803c14.3479-48.1665,32.9848-120.4026,39.2183-145.2576,6.2027-24.0834,3.1778-29.4365-13.3612-30.8412-2.7773-.2305-13.4224-1.0024-13.4224-1.0024v-10.8774h89.2991v10.8774c-25.2412,2.3292-28.3269,4.6748-40.7616,39.6047-5.8321,16.307-33.418,97.1054-65.6321,205.0728h-17.1257l-65.9713-181.7613h-.8331l-60.5718,181.7613h-17.0632l-64.0895-206.6158c-10.4604-33.3869-17.4646-35.7325-38.0771-38.0617v-10.8774h104.8815v10.8774s-9.8127.5402-11.9724.8481c-13.9776,1.9136-18.7302,4.6601-12.8672,24.7781l45.0505,151.475h.741l59.0591-184.8923h15.1511Z"></path><path fill="#009CDB" d="M777.7619,611.9963v-.7711c22.9256-4.2736,55.1715-22.1542,55.1715-55.5426,0-20.5823-7.7758-34.9306-21.7549-44.2787-13.9776-8.9328-29.5289-12.8061-59.8307-12.8061h-107.1648v10.8784c27.9567,2.3281,31.0418,5.4125,31.0418,47.3779v135.9263c0,37.2914-2.4912,43.8991-24.3462,46.5356-16.7761-2.5001-22.4011-8.138-34.1306-38.7624-14.7502-38.8484-31.814-86.9825-49.3097-134.3812l-26.043-70.2112-15.9832,1.5036-78.7466,203.0888c-13.6084,34.9306-17.8968,36.5054-41.9342,39.6195v10.8635h86.1829v-10.8635l-10.8309-1.2011c-17.0946-1.9129-20.2109-6.9754-13.2065-27.54,5.3999-16.3087,12.4043-38.0625,17.4334-49.7268h71.8965c8.1458,20.2116,17.4642,44.2787,21.3219,55.9281,4.6903,14.7665,3.8881,18.6546-10.8613,20.9679l-10.8621,1.5718v10.8635h182.7374c28.3574,0,55.9129-4.6592,74.1798-15.5524,21.3834-12.7883,34.9599-31.0722,34.9599-58.627,0-38.8336-30.2699-60.187-69.9202-64.861ZM488.5992,643.8396l30.3015-85.4403h1.1418l30.3011,85.4403h-61.7444ZM717.9616,532.787c0-9.3332,0-15.9231,3.1163-17.495,2.3144-1.1418,7.7758-1.9455,17.8657-1.9455,23.6978,0,48.9386,11.6495,48.9386,47.3957,0,32.6173-20.9823,48.1371-54.3693,48.1371h-15.5513v-76.0923ZM747.4908,735.4843c-24.8701.8037-29.5292-6.9725-29.5292-43.4779v-69.1495h13.2058c39.6206,0,68.3483,18.6694,68.3483,58.2889,0,39.9902-26.383,54.3385-52.0248,54.3385Z"></path></svg>